<svg xmlns="http://www.w3.org/2000/svg" viewBox="0 0 720 260" role="img" aria-label="Events stored per second (event-core)" font-family="system-ui, sans-serif" font-size="11">
<rect width="720" height="260" fill="#fff"/>
<text x="56" y="16" font-size="13" font-weight="600" fill="#1C2430">Events stored per second (event-core)</text>
<line x1="56" x2="570" y1="224.0" y2="224.0" stroke="#EEF1F4"/><text x="50" y="228.0" text-anchor="end" fill="#4A5565">0</text>
<line x1="56" x2="570" y1="184.8" y2="184.8" stroke="#EEF1F4"/><text x="50" y="188.8" text-anchor="end" fill="#4A5565">436</text>
<line x1="56" x2="570" y1="145.6" y2="145.6" stroke="#EEF1F4"/><text x="50" y="149.6" text-anchor="end" fill="#4A5565">871</text>
<line x1="56" x2="570" y1="106.4" y2="106.4" stroke="#EEF1F4"/><text x="50" y="110.4" text-anchor="end" fill="#4A5565">1,307</text>
<line x1="56" x2="570" y1="67.2" y2="67.2" stroke="#EEF1F4"/><text x="50" y="71.2" text-anchor="end" fill="#4A5565">1,742</text>
<line x1="56" x2="570" y1="28.0" y2="28.0" stroke="#EEF1F4"/><text x="50" y="32.0" text-anchor="end" fill="#4A5565">2,178</text>
<text x="56.0" y="240" text-anchor="middle" fill="#4A5565">0 s</text>
<text x="158.8" y="240" text-anchor="middle" fill="#4A5565">76 s</text>
<text x="261.6" y="240" text-anchor="middle" fill="#4A5565">151 s</text>
<text x="364.4" y="240" text-anchor="middle" fill="#4A5565">227 s</text>
<text x="467.2" y="240" text-anchor="middle" fill="#4A5565">302 s</text>
<text x="570.0" y="240" text-anchor="middle" fill="#4A5565">378 s</text>
<text x="14" y="126" transform="rotate(-90 14 126)" text-anchor="middle" fill="#4A5565">events/s</text>
<path d="M62.9,212.3 L69.7,213.2 L76.7,212.4 L83.5,210.9 L90.4,210.2 L97.2,209.7 L104.0,207.8 L111.0,206.8 L117.8,206.2 L124.6,204.6 L131.5,205.6 L138.3,203.0 L145.1,204.1 L152.1,203.1 L158.9,200.9 L165.7,200.1 L172.6,201.5 L179.4,200.3 L186.2,197.8 L193.1,199.6 L199.9,197.2 L206.7,197.0 L213.7,197.5 L220.5,194.7 L227.4,195.0 L234.2,193.4 L241.2,193.5 L248.0,192.3 L254.9,194.1 L261.7,194.0 L268.6,193.2 L275.4,191.1 L282.3,189.6 L289.2,193.2 L296.0,191.7 L302.9,192.1 L309.7,197.3 L316.7,198.0 L323.5,199.1 L330.3,198.3 L337.2,201.1 L344.0,200.9 L350.8,201.8 L357.8,203.8 L364.6,203.8 L371.4,204.9 L378.3,205.6 L385.1,207.1 L391.9,206.6 L398.8,208.5 L405.7,208.8 L412.5,210.4 L419.4,211.0 L426.2,211.8 L433.0,212.6 L439.9,213.8 L446.7,214.7 L453.5,215.8 L460.5,215.1 L467.3,215.5 L474.1,217.5 L481.0,216.6 L487.8,217.9 L494.6,217.8 L501.6,218.3 L508.4,218.7 L515.2,218.8 L522.1,219.4 L528.9,220.0 L535.7,220.2 L542.5,220.8 L549.5,222.0 L556.3,222.7 L563.1,223.3 L570.0,224.0" fill="none" stroke="#1F5FBF" stroke-width="2"/>
<line x1="582" x2="598" y1="38" y2="38" stroke="#1F5FBF" stroke-width="2"/><text x="604" y="42" fill="#1C2430">s50-x10-t2</text>
<path d="M62.9,178.7 L69.9,161.3 L77.0,149.1 L83.9,143.2 L91.0,137.0 L97.9,108.8 L104.8,95.5 L111.8,96.4 L118.7,87.1 L125.7,112.1 L132.5,134.8 L139.4,150.8 L146.2,165.2 L153.1,180.7 L159.9,190.8 L166.7,195.7 L173.7,204.1 L180.5,211.0 L187.3,222.7" fill="none" stroke="#0B7A75" stroke-width="2"/>
<line x1="582" x2="598" y1="54" y2="54" stroke="#0B7A75" stroke-width="2"/><text x="604" y="58" fill="#1C2430">s50-x40-t1</text>
<path d="M62.9,178.1 L69.9,162.3 L76.7,148.5 L83.8,135.7 L90.7,128.5 L97.6,113.7 L104.6,107.2 L111.5,100.1 L118.6,101.8 L125.5,126.1 L132.5,136.7 L139.4,153.6 L146.2,166.6 L153.1,183.2 L159.9,191.9 L166.7,198.0 L173.7,202.4 L180.5,209.9 L187.3,222.1" fill="none" stroke="#B86E00" stroke-width="2"/>
<line x1="582" x2="598" y1="70" y2="70" stroke="#B86E00" stroke-width="2"/><text x="604" y="74" fill="#1C2430">s50-x40-t2</text>
<path d="M62.9,177.3 L69.9,163.4 L76.7,143.4 L83.6,135.5 L90.6,125.9 L97.5,116.3 L104.4,106.8 L111.4,99.0 L118.3,96.0 L125.2,122.0 L132.1,136.7 L139.0,150.9 L146.1,165.3 L152.9,179.0 L159.8,190.8 L166.6,195.9 L173.5,204.6 L180.4,211.2 L187.2,222.7 L194.1,224.0" fill="none" stroke="#A3243B" stroke-width="2"/>
<line x1="582" x2="598" y1="86" y2="86" stroke="#A3243B" stroke-width="2"/><text x="604" y="90" fill="#1C2430">s50-x40-t4</text>
<path d="M62.9,80.4 L69.9,84.7 L76.7,80.5 L83.6,66.3 L90.6,58.1 L97.5,55.4 L104.4,49.0 L111.4,60.1 L118.3,166.1" fill="none" stroke="#5B4B8A" stroke-width="2"/>
<line x1="582" x2="598" y1="102" y2="102" stroke="#5B4B8A" stroke-width="2"/><text x="604" y="106" fill="#1C2430">s50-x160-t2</text>
<path d="M63.1,97.6 L69.9,55.7 L76.8,47.7 L83.8,80.8 L90.7,48.7 L97.6,45.8 L104.4,49.5 L111.4,67.0 L118.3,210.2 L125.1,224.0" fill="none" stroke="#4A5565" stroke-width="2"/>
<line x1="582" x2="598" y1="118" y2="118" stroke="#4A5565" stroke-width="2"/><text x="604" y="122" fill="#1C2430">s50-x640-t2</text>
<path d="M63.1,118.2 L70.1,115.8 L77.4,82.6 L84.4,97.7 L91.2,112.1 L98.2,75.1 L105.3,74.9 L112.2,66.3 L119.3,68.8 L126.1,150.1 L132.9,224.0" fill="none" stroke="#1F5FBF" stroke-width="2"/>
<line x1="582" x2="598" y1="134" y2="134" stroke="#1F5FBF" stroke-width="2"/><text x="604" y="138" fill="#1C2430">s50-x640-t4</text>
<path d="M63.1,122.7 L70.1,123.1 L77.5,114.7 L84.4,112.2 L91.4,80.6 L98.3,60.1 L105.3,68.8 L112.2,55.1 L119.3,68.5 L126.1,134.5 L133.0,224.0" fill="none" stroke="#0B7A75" stroke-width="2"/>
<line x1="582" x2="598" y1="150" y2="150" stroke="#0B7A75" stroke-width="2"/><text x="604" y="154" fill="#1C2430">s50-x2560-t2</text>
<path d="M63.2,136.7 L70.4,119.4 L77.5,120.9 L84.6,103.9 L91.5,84.2 L98.6,82.1 L105.5,69.0 L112.5,66.3 L119.4,69.0 L126.2,95.5 L133.1,216.8" fill="none" stroke="#B86E00" stroke-width="2"/>
<line x1="582" x2="598" y1="166" y2="166" stroke="#B86E00" stroke-width="2"/><text x="604" y="170" fill="#1C2430">s50-x2560-t4</text>
</svg>
